<?xml version="1.0" encoding="UTF-8"?><svg id="Calque_1" xmlns="http://www.w3.org/2000/svg" viewBox="0 0 100 100"><defs><style>.cls-1{fill:rgba(255,255,255,.5);}.cls-2{fill:rgba(43,56,96,.5);}</style></defs><path class="cls-1" d="m50,0h0c27.61,0,50,22.39,50,50h0c0,27.61-22.39,50-50,50h0C22.39,100,0,77.61,0,50h0C0,22.39,22.39,0,50,0Z"/><path class="cls-2" d="m54.69,49.65v18.81c0,1.66-.42,3.09-1.97,3.88-1.69.84-3.31.51-4.7-.65-2.49-2.11-4.93-4.26-7.38-6.4-1.66-1.45-3.3-2.95-5-4.34-.46-.36-1.02-.56-1.6-.6-1.71-.08-3.44,0-5.15-.04-4.13-.06-6.97-2.92-7-7.06-.02-2.42,0-4.84,0-7.25.03-4.06,2.88-6.93,6.95-7.01,1.65-.03,3.3.07,4.94-.04.75-.04,1.46-.31,2.06-.76,3.92-3.34,7.77-6.75,11.64-10.13,1.33-1.16,2.82-1.88,4.64-1.32,1.69.53,2.57,1.85,2.57,3.8,0,6.36,0,12.72,0,19.1Z"/><path class="cls-2" d="m76.8,50.82c-.18,6.29-3.08,12.18-8.74,16.69-1.55,1.24-3.2.91-3.8-.69-.35-.96-.03-1.79,1.04-2.61,2.65-1.99,4.69-4.68,5.91-7.77,3.05-7.74.74-15.95-5.94-21.28-1.13-.89-1.46-1.72-1.09-2.69.55-1.43,2.14-1.86,3.48-.87,3.48,2.53,6.15,6.02,7.68,10.04,1.04,2.65,1.48,5.4,1.48,9.17Z"/><path class="cls-2" d="m67.05,49.49c-.03,4.29-1.65,7.64-4.84,10.22-1.08.88-2.42.78-3.19-.17-.77-.95-.6-2.14.42-3.08.26-.24.53-.46.78-.7,1.59-1.52,2.51-3.61,2.58-5.81.07-2.2-.73-4.33-2.23-5.95-.4-.42-.88-.79-1.32-1.2-.43-.37-.7-.89-.75-1.45-.06-.56.11-1.12.45-1.57.18-.22.4-.39.65-.52.25-.13.52-.21.8-.23.28-.02.56,0,.83.09.27.09.52.22.73.4,3.32,2.56,5.02,5.93,5.07,9.96Z"/></svg>